<?xml version="1.0" ?><svg viewBox="0 0 32 32" xmlns="http://www.w3.org/2000/svg"><defs><style>.cls-1{fill:#ff005c;}</style></defs><title/><g id="Heal"><polygon points="17 12 15 12 15 14.5 12.5 14.5 12.5 16.5 15 16.5 15 19 17 19 17 16.5 19.5 16.5 19.5 14.5 17 14.5 17 12"/><path d="M28,7.39A7.08,7.08,0,0,0,22.73,4a7.35,7.35,0,0,0-2.58.28,11.44,11.44,0,0,0-3.82,2.05L16,6.62l-.12-.1A13.4,13.4,0,0,0,14,5.23,8.29,8.29,0,0,0,9.27,4a6.16,6.16,0,0,0-1.42.28A6.86,6.86,0,0,0,5.11,6.07,10.49,10.49,0,0,0,4,7.39C.2,12.86,7.91,21.14,12.48,25.3c.56.52,1.08,1,1.52,1.34.65.56,1.14.95,1.38,1.14h1.24C18.31,26.45,33,14.53,28,7.39ZM16,25.71l-.48-.41c-.47-.39-1-.84-1.52-1.33C9.33,19.71,2.91,12.46,5.66,8.54a6.34,6.34,0,0,1,2.26-2.1A4,4,0,0,1,9.43,6,2.3,2.3,0,0,1,9.8,6a5.57,5.57,0,0,1,1.86.34l.46.18A10.34,10.34,0,0,1,14,7.6a10.69,10.69,0,0,1,1.29,1.06h1.43a10.9,10.9,0,0,1,3.36-2.22A5.51,5.51,0,0,1,22.56,6a1.77,1.77,0,0,1,.32,0,5.32,5.32,0,0,1,3.46,2.48C29.51,13.07,20.47,22,16,25.71Z"/><path class="cls-1" d="M16,25.71l-.48-.41C20.09,21.14,27.8,12.86,24,7.39a10.66,10.66,0,0,0-1.1-1.33,5.32,5.32,0,0,1,3.46,2.48C29.51,13.07,20.47,22,16,25.71Z"/></g></svg>