<?xml version="1.0" ?><svg viewBox="0 0 256 256" xmlns="http://www.w3.org/2000/svg"><rect fill="none" height="256" width="256"/><polyline fill="none" points="76.2 132.2 152.2 40.2 216 40 215.8 103.8 123.8 179.8" stroke="#000" stroke-linecap="round" stroke-linejoin="round" stroke-width="12"/><line fill="none" stroke="#000" stroke-linecap="round" stroke-linejoin="round" stroke-width="12" x1="100" x2="160" y1="156" y2="96"/><path d="M82.1,197.5,52.2,227.4a8,8,0,0,1-11.3,0L28.6,215.1a8,8,0,0,1,0-11.3l29.9-29.9a8,8,0,0,0,0-11.4L37.7,141.7a8,8,0,0,1,0-11.4l12.6-12.6a8,8,0,0,1,11.4,0l76.6,76.6a8,8,0,0,1,0,11.4l-12.6,12.6a8,8,0,0,1-11.4,0L93.5,197.5A8,8,0,0,0,82.1,197.5Z" fill="none" stroke="#000" stroke-linecap="round" stroke-linejoin="round" stroke-width="12"/></svg>