<?xml version="1.0" ?><!DOCTYPE svg  PUBLIC '-//W3C//DTD SVG 1.1//EN'  'http://www.w3.org/Graphics/SVG/1.1/DTD/svg11.dtd'><svg enable-background="new 0 0 64 64" height="64px" id="Layer_1" version="1.1" viewBox="0 0 64 64" width="64px" xml:space="preserve" xmlns="http://www.w3.org/2000/svg" xmlns:xlink="http://www.w3.org/1999/xlink"><g><path d="M47.718,34.024V19.79c0-5.872-6.068-6.054-6.068-6.054H22.124c-5.259,0-5.801,4.388-5.84,5.768v14.761   c0,3.54,2.041,5.554,2.637,6.069l10.969,9.148c0.006,0.006,2.116,1.754,4.221-0.001c0.003,0,0.003-0.002,0.003-0.002l10.073-8.402   C47.513,38.306,47.712,34.702,47.718,34.024z"/><path d="M61.85,4.269l-0.921-0.922c-0.632-0.607-3.807-3.354-7.081-0.081l-5.639,5.64c0,0-1.373,1.636,0.518,3.751   c0.04,0.045,0.061,0.081,0.095,0.124c1.001,1.054,1.749,2.569,1.749,4.795v4.252c0,0,0.396,2.325,2.723,0l0.549-0.549l8.272-8.272   C62.114,13.005,66.416,8.748,61.85,4.269z"/><path d="M10.934,22.053c0.034,0.031,2.498,2.256,2.498-0.909v-3.906c0.028-0.997,0.3-3.309,1.911-4.963l-0.01-0.008   c0,0,0.048-0.044,0.117-0.117l0.002-0.003c0.402-0.424,1.611-1.969-0.119-3.698l0-0.001l-5.18-5.182   C6.878-0.007,3.703,2.739,3.073,3.347L2.151,4.269c-4.567,4.479-0.266,8.736-0.266,8.736l8.274,8.272L10.934,22.053z"/><path d="M20.842,45.43l-0.367-0.306c-0.297-0.241-2.596-1.932-5.578,0.838h0l-7.186,7.187c-0.41,0.416-2.009,2.142-2.71,4.329   L3.879,60.99c-0.564,1.762,1.25,1.25,1.25,1.25h0.002l3.283-1.052c2.411-0.771,4.591-2.816,4.591-2.816l7.596-7.595   C23.486,47.893,21.185,45.725,20.842,45.43z"/><path d="M59,57.478c-0.703-2.188-2.302-3.913-2.712-4.329l-6.901-6.901c-2.719-2.72-4.743-1.927-5.607-1.336l-0.532,0.443   l-0.001,0.002l-0.047,0.04c-0.36,0.306-2.673,2.491,0.539,5.719l7.256,7.257c0,0,2.183,2.045,4.592,2.816l3.283,1.052h0.002   c0,0,1.812,0.512,1.249-1.25L59,57.478z"/></g></svg>